<?xml version='1.0' encoding='UTF-8'?>
<svg x="0px" y="0px" viewBox="0 0 32 32" version="1.1" xmlns="http://www.w3.org/2000/svg" xmlns:xlink="http://www.w3.org/1999/xlink" enable-background="new 0 0 32 32" xml:space="preserve" id="Layer_1">
  <style type="text/css">
	.Black{fill:#727272;}
	.Blue{fill:#1177D7;}
	.Green{fill:#039C23;}
	.Yellow{fill:#FFB115;}
	.Red{fill:#D11C1C;}
	.White{fill:#FFFFFF;}
	.st0{opacity:0.5;}
	.st1{opacity:0.75;}
</style>
  <g id="PrintAllPages">
    <path d="M31,0H15c-0.5,0-1,0.5-1,1v3h-3c-0.5,0-1,0.5-1,1v3H7C6.5,8,6,8.5,6,9v3H3c-0.5,0-1,0.5-1,1v18   c0,0.5,0.5,1,1,1h16c0.5,0,1-0.5,1-1v-3h3c0.5,0,1-0.5,1-1v-3h3c0.5,0,1-0.5,1-1v-3h3c0.5,0,1-0.5,1-1V1C32,0.5,31.5,0,31,0z    M18,30H4V14h14V30z M22,26h-2V13c0-0.5-0.5-1-1-1H8v-2h14V26z M26,22h-2V9c0-0.5-0.5-1-1-1H12V6h14V22z M30,18h-2V5   c0-0.5-0.5-1-1-1H16V2h14V18z" fill="#1177D7" class="Blue" />
  </g>
</svg>