<?xml version='1.0' encoding='UTF-8'?>
<svg x="0px" y="0px" viewBox="0 0 32 32" version="1.1" xmlns="http://www.w3.org/2000/svg" xmlns:xlink="http://www.w3.org/1999/xlink" enable-background="new 0 0 32 32" xml:space="preserve" id="UpdateField">
  <style type="text/css">
	.Yellow{fill:#FFB115;}
	.Green{fill:#039C23;}
</style>
  <g>
    <g>
      <path d="M16.1,22l0-0.3c0.6-4.4,4.5-7.7,8.9-7.7c1,0,2,0.2,3,0.5V7c0-0.5-0.5-1-1-1H1C0.5,6,0,6.5,0,7v14    c0,0.5,0.5,1,1,1H16.1L16.1,22z" fill="#FFB115" class="Yellow" />
    </g>
    <g>
      <path d="M16.1,22l0-0.3c0.6-4.4,4.5-7.7,8.9-7.7c1,0,2,0.2,3,0.5V7c0-0.5-0.5-1-1-1H1C0.5,6,0,6.5,0,7v14    c0,0.5,0.5,1,1,1H16.1L16.1,22z" fill="#FFB115" class="Yellow" />
    </g>
  </g>
  <path d="M32,16v6h-0.1h-2H26l2.5-2.5C27.6,18.6,26.4,18,25,18c-2.4,0-4.4,1.7-4.9,4h-2c0.5-3.4,3.4-6,6.9-6  c1.9,0,3.7,0.8,4.9,2.1L32,16z M25,28c-1.4,0-2.6-0.6-3.5-1.5L24,24h-3.9h-2H18v6l2.1-2.1c1.3,1.3,3,2.1,4.9,2.1  c3.5,0,6.4-2.6,6.9-6h-2C29.4,26.3,27.4,28,25,28z" fill="#039C23" class="Green" />
</svg>