<?xml version='1.0' encoding='UTF-8'?>
<svg x="0px" y="0px" viewBox="0 0 32 32" version="1.1" xmlns="http://www.w3.org/2000/svg" xmlns:xlink="http://www.w3.org/1999/xlink" enable-background="new 0 0 32 32" xml:space="preserve" id="Layer_1">
  <style type="text/css">
	.Black{fill:#727272;}
	.Yellow{fill:#FFB115;}
	.Blue{fill:#1177D7;}
	.Red{fill:#D11C1C;}
	.White{fill:#FFFFFF;}
	.Green{fill:#039C23;}
	.st0{fill:#727272;}
	.st1{opacity:0.5;}
	.st2{opacity:0.75;}
</style>
  <g id="CustomerProfileReport">
    <path d="M27,4h-3v22H8V4H5C4.4,4,4,4.4,4,5v24c0,0.6,0.4,1,1,1h22c0.6,0,1-0.4,1-1V5C28,4.4,27.6,4,27,4z" fill="#FFB115" class="Yellow" />
    <path d="M20,4V3c0-0.6-0.4-1-1-1h-6c-0.6,0-1,0.4-1,1v1h-2v4h3h6h3V4H20z" fill="#727272" class="Black" />
    <g opacity="0.75" class="st2">
      <path d="M12,20h8v2h-8V20z M12,14h8v-2h-8V14z M12,18h8v-2h-8V18z" fill="#727272" opacity="0.75" class="Black" />
    </g>
  </g>
</svg>